<?xml version="1.0" encoding="utf-8"?>
<!-- Generator: Adobe Illustrator 24.0.0, SVG Export Plug-In . SVG Version: 6.00 Build 0)  -->
<svg version="1.1" id="Layer_1" xmlns="http://www.w3.org/2000/svg" xmlns:xlink="http://www.w3.org/1999/xlink" x="0px" y="0px"
	 viewBox="0 0 616 500" style="enable-background:new 0 0 616 500;" xml:space="preserve">
<style type="text/css">
	.st0{fill:#FF7F15;}
	.st1{fill:#0B3556;}
	.st2{fill:#FFFFFF;}
	.st3{fill:none;}
	.st4{font-family:'Raleway-Medium';}
	.st5{font-size:120.7317px;}
	.st6{letter-spacing:3;}
</style>
<circle class="st0" cx="252.1" cy="249" r="236"/>
<g>
	<path class="st1" d="M404.2,225.6h-34.9v-42.2c0-18.3-9.3-27.7-27.7-27.7h-73.3c-5.5,0-9.3-1.4-13.1-5.5l-18.3-18.3
		c-3.8-3.8-7.6-5.5-13.1-5.5h-79.5c-18.3,0-27.7,9.3-27.7,27.7v199.1c0,5.5,4.5,10,10,10h253.7c1.4,0,2.8-0.7,3.1-1.7l42.5-112
		C431.2,234.9,422.9,225.6,404.2,225.6z"/>
	<path class="st2" d="M404.6,225.6h-34.9v-0.3h-13.5v0.3l0,0H214.1c-14.9,0-27.3,7.6-31.8,19.4L142.2,350l-5.9,13.5h244.4
		c1.4,0,2.8-0.7,3.1-1.7l42.5-112C431.9,234.9,423.2,225.6,404.6,225.6z"/>
</g>
<rect x="461.6" y="14.1" class="st3" width="380.2" height="242.6"/>
<text transform="matrix(1 0 0 1 461.6436 102.2715)" class="st4 st5 st6">17</text>
</svg>
